<svg xmlns="http://www.w3.org/2000/svg" viewBox="0 0 512 512">
  <defs>
    <linearGradient id="bgGrad" x1="0%" y1="0%" x2="100%" y2="100%">
      <stop offset="0%" style="stop-color:#f59e0b"/>
      <stop offset="100%" style="stop-color:#d97706"/>
    </linearGradient>
  </defs>
  <!-- Background -->
  <rect width="512" height="512" rx="100" fill="url(#bgGrad)"/>
  <!-- Top Bun -->
  <ellipse cx="256" cy="150" rx="150" ry="60" fill="#D2691E"/>
  <ellipse cx="256" cy="140" rx="140" ry="50" fill="#CD853F"/>
  <!-- Sesame seeds -->
  <ellipse cx="200" cy="120" rx="10" ry="6" fill="#F5DEB3"/>
  <ellipse cx="256" cy="110" rx="10" ry="6" fill="#F5DEB3"/>
  <ellipse cx="312" cy="120" rx="10" ry="6" fill="#F5DEB3"/>
  <ellipse cx="180" cy="145" rx="10" ry="6" fill="#F5DEB3"/>
  <ellipse cx="332" cy="145" rx="10" ry="6" fill="#F5DEB3"/>
  <!-- Lettuce -->
  <path d="M100,200 Q130,180 160,210 Q190,180 220,210 Q250,180 280,210 Q310,180 340,210 Q370,180 400,210 L400,230 Q370,210 340,230 Q310,210 280,230 Q250,210 220,230 Q190,210 160,230 Q130,210 100,230 Z" fill="#228B22"/>
  <!-- Patty -->
  <ellipse cx="256" cy="270" rx="145" ry="40" fill="#4a2c2a"/>
  <ellipse cx="256" cy="260" rx="140" ry="35" fill="#5D3A3A"/>
  <!-- Cheese -->
  <path d="M110,300 L140,330 L400,330 L430,300 L110,300" fill="#FFD700"/>
  <!-- Bottom Bun -->
  <ellipse cx="256" cy="370" rx="150" ry="50" fill="#D2691E"/>
  <ellipse cx="256" cy="355" rx="140" ry="40" fill="#CD853F"/>
</svg>
