<svg xmlns="http://www.w3.org/2000/svg" viewBox="0 0 512 512">
  <!-- Dark background -->
  <rect width="512" height="512" fill="#2d2d2d"/>
  
  <!-- Circle outline -->
  <circle cx="256" cy="256" r="180" fill="none" stroke="#6b6b6b" stroke-width="3"/>
  
  <!-- Top Bun -->
  <path d="M156 220 Q156 160 256 160 Q356 160 356 220 L356 230 L156 230 Z" fill="#e8922a"/>
  <path d="M165 218 Q165 168 256 168 Q347 168 347 218 L347 225 L165 225 Z" fill="#f5a83d"/>
  
  <!-- Cheese/Filling with stars -->
  <rect x="145" y="235" width="222" height="55" rx="4" fill="#f5c41a"/>
  
  <!-- Three stars on the cheese -->
  <path d="M195 262 l5 -15 l5 15 l15 0 l-12 9 l5 15 l-13 -10 l-13 10 l5 -15 l-12 -9 z" fill="#2d2d2d"/>
  <path d="M256 262 l5 -15 l5 15 l15 0 l-12 9 l5 15 l-13 -10 l-13 10 l5 -15 l-12 -9 z" fill="#2d2d2d"/>
  <path d="M317 262 l5 -15 l5 15 l15 0 l-12 9 l5 15 l-13 -10 l-13 10 l5 -15 l-12 -9 z" fill="#2d2d2d"/>
  
  <!-- Bottom Bun -->
  <path d="M156 295 L356 295 L356 305 Q356 345 256 345 Q156 345 156 305 Z" fill="#e8922a"/>
  <path d="M165 295 L347 295 L347 302 Q347 335 256 335 Q165 335 165 302 Z" fill="#d97d1a"/>
  
  <!-- Small sparkle in corner -->
  <path d="M445 445 l3 -8 l3 8 l8 0 l-6 5 l3 8 l-8 -6 l-8 6 l3 -8 l-6 -5 z" fill="#9a9a9a"/>
</svg>
