<svg xmlns="http://www.w3.org/2000/svg" viewBox="0 0 192 192">
  <!-- Dark circular background -->
  <circle cx="96" cy="96" r="96" fill="#2d2d2d"/>
  
  <!-- Circle outline -->
  <circle cx="96" cy="96" r="82" fill="none" stroke="#6b6b6b" stroke-width="2"/>
  
  <!-- Top Bun -->
  <path d="M48 78 Q48 52 96 52 Q144 52 144 78 L144 84 L48 84 Z" fill="#e8922a"/>
  <path d="M52 76 Q52 56 96 56 Q140 56 140 76 L140 82 L52 82 Z" fill="#f5a83d"/>
  
  <!-- Cheese/Filling with stars -->
  <rect x="43" y="86" width="106" height="26" rx="2" fill="#f5c41a"/>
  
  <!-- Three stars on the cheese -->
  <path d="M68 99 l2 -7 l2 7 l7 0 l-6 4 l2 7 l-6 -5 l-6 5 l2 -7 l-6 -4 z" fill="#2d2d2d"/>
  <path d="M96 99 l2 -7 l2 7 l7 0 l-6 4 l2 7 l-6 -5 l-6 5 l2 -7 l-6 -4 z" fill="#2d2d2d"/>
  <path d="M124 99 l2 -7 l2 7 l7 0 l-6 4 l2 7 l-6 -5 l-6 5 l2 -7 l-6 -4 z" fill="#2d2d2d"/>
  
  <!-- Bottom Bun -->
  <path d="M48 114 L144 114 L144 119 Q144 139 96 139 Q48 139 48 119 Z" fill="#e8922a"/>
  <path d="M52 114 L140 114 L140 118 Q140 134 96 134 Q52 134 52 118 Z" fill="#d97d1a"/>
</svg>
