<svg xmlns="http://www.w3.org/2000/svg" viewBox="0 0 512 512">
  <!-- Dark circular background -->
  <circle cx="256" cy="256" r="256" fill="#2d2d2d"/>
  
  <!-- Circle outline -->
  <circle cx="256" cy="256" r="220" fill="none" stroke="#6b6b6b" stroke-width="4"/>
  
  <!-- Top Bun -->
  <path d="M130 210 Q130 140 256 140 Q382 140 382 210 L382 225 L130 225 Z" fill="#e8922a"/>
  <path d="M140 206 Q140 150 256 150 Q372 150 372 206 L372 220 L140 220 Z" fill="#f5a83d"/>
  
  <!-- Cheese/Filling with stars -->
  <rect x="115" y="230" width="282" height="70" rx="5" fill="#f5c41a"/>
  
  <!-- Three stars on the cheese -->
  <path d="M180 265 l6 -18 l6 18 l19 0 l-15 11 l6 18 l-16 -12 l-16 12 l6 -18 l-15 -11 z" fill="#2d2d2d"/>
  <path d="M256 265 l6 -18 l6 18 l19 0 l-15 11 l6 18 l-16 -12 l-16 12 l6 -18 l-15 -11 z" fill="#2d2d2d"/>
  <path d="M332 265 l6 -18 l6 18 l19 0 l-15 11 l6 18 l-16 -12 l-16 12 l6 -18 l-15 -11 z" fill="#2d2d2d"/>
  
  <!-- Bottom Bun -->
  <path d="M130 305 L382 305 L382 318 Q382 370 256 370 Q130 370 130 318 Z" fill="#e8922a"/>
  <path d="M140 305 L372 305 L372 315 Q372 358 256 358 Q140 358 140 315 Z" fill="#d97d1a"/>
</svg>
